<svg width="46" height="46" viewBox="0 0 46 46" fill="none" xmlns="http://www.w3.org/2000/svg">
<g clip-path="url(#clip0)">
<path fill-rule="evenodd" clip-rule="evenodd" d="M42.4265 25.4559C43.1766 24.7057 43.598 23.6883 43.598 22.6274C43.598 21.5666 43.1766 20.5492 42.4265 19.799C41.6763 19.0489 25.4559 2.82845 25.4559 2.82845C24.7057 2.07831 23.6883 1.65688 22.6275 1.65688C21.5666 1.65688 20.5492 2.07831 19.799 2.82845L2.82848 19.799C2.07833 20.5492 1.6569 21.5666 1.6569 22.6274C1.6569 23.6883 2.07833 24.7057 2.82848 25.4559L19.799 42.4264C20.5492 43.1766 21.5666 43.598 22.6275 43.598C23.6883 43.598 24.7057 43.1766 25.4559 42.4264L42.4265 25.4559ZM24.7488 28.9914L30.4056 23.3345C30.5932 23.147 30.6985 22.8927 30.6985 22.6274C30.6985 22.3622 30.5932 22.1079 30.4056 21.9203L24.7488 16.2635C24.5612 16.0759 24.3069 15.9706 24.0417 15.9706C23.7765 15.9706 23.5221 16.0759 23.3346 16.2635C23.147 16.451 23.0417 16.7054 23.0417 16.9706C23.0417 17.2358 23.147 17.4902 23.3346 17.6777L27.2845 21.6276L15.5564 21.6262C15.2908 21.6262 15.0362 21.7317 14.8484 21.9194C14.6606 22.1072 14.5551 22.3619 14.5551 22.6274C14.5551 22.893 14.6606 23.1477 14.8484 23.3354C15.0362 23.5232 15.2908 23.6287 15.5564 23.6287L27.2845 23.6273L23.3346 27.5772C23.147 27.7647 23.0417 28.0191 23.0417 28.2843C23.0417 28.5495 23.147 28.8039 23.3346 28.9914C23.5221 29.1789 23.7765 29.2843 24.0417 29.2843C24.3069 29.2843 24.5612 29.1789 24.7488 28.9914Z" fill="#F09D51"/>
<path d="M30.4057 23.3345L24.7488 28.9914C24.5613 29.1789 24.3069 29.2843 24.0417 29.2843C23.7765 29.2843 23.5222 29.1789 23.3346 28.9914C23.1471 28.8039 23.0417 28.5495 23.0417 28.2843C23.0417 28.0191 23.1471 27.7647 23.3346 27.5772L27.2845 23.6273L15.5564 23.6287C15.2909 23.6287 15.0362 23.5232 14.8484 23.3354C14.6607 23.1477 14.5552 22.893 14.5552 22.6274C14.5552 22.3619 14.6607 22.1072 14.8484 21.9194C15.0362 21.7317 15.2909 21.6262 15.5564 21.6262L27.2845 21.6276L23.3346 17.6777C23.1471 17.4902 23.0417 17.2358 23.0417 16.9706C23.0417 16.7054 23.1471 16.451 23.3346 16.2635C23.5222 16.0759 23.7765 15.9706 24.0417 15.9706C24.3069 15.9706 24.5613 16.0759 24.7488 16.2635L30.4057 21.9203C30.5932 22.1079 30.6986 22.3622 30.6986 22.6274C30.6986 22.8927 30.5932 23.147 30.4057 23.3345Z" fill="#E8E9EB"/>
</g>
<defs>
<clipPath id="clip0">
<rect width="32" height="32" fill="white" transform="translate(45.2549 22.6274) rotate(135)"/>
</clipPath>
</defs>
</svg>
