<svg width="46" height="46" viewBox="0 0 46 46" fill="none" xmlns="http://www.w3.org/2000/svg">
<g clip-path="url(#clip0)">
<path fill-rule="evenodd" clip-rule="evenodd" d="M2.82843 19.799C2.07828 20.5492 1.65685 21.5666 1.65685 22.6274C1.65685 23.6883 2.07828 24.7057 2.82843 25.4559C3.57857 26.206 19.799 42.4264 19.799 42.4264C20.5491 43.1766 21.5666 43.598 22.6274 43.598C23.6883 43.598 24.7057 43.1766 25.4558 42.4264L42.4264 25.4559C43.1766 24.7057 43.598 23.6883 43.598 22.6274C43.598 21.5666 43.1766 20.5492 42.4264 19.799L25.4558 2.82845C24.7057 2.07831 23.6883 1.65688 22.6274 1.65688C21.5666 1.65688 20.5491 2.07831 19.799 2.82845L2.82843 19.799ZM20.5061 16.2635L14.8492 21.9203C14.6617 22.1079 14.5563 22.3622 14.5563 22.6274C14.5563 22.8927 14.6617 23.147 14.8492 23.3345L20.5061 28.9914C20.6936 29.1789 20.948 29.2843 21.2132 29.2843C21.4784 29.2843 21.7328 29.1789 21.9203 28.9914C22.1078 28.8039 22.2132 28.5495 22.2132 28.2843C22.2132 28.0191 22.1078 27.7647 21.9203 27.5772L17.9704 23.6273L29.6985 23.6287C29.964 23.6287 30.2187 23.5232 30.4065 23.3354C30.5943 23.1477 30.6997 22.893 30.6997 22.6274C30.6997 22.3619 30.5943 22.1072 30.4065 21.9194C30.2187 21.7317 29.964 21.6262 29.6985 21.6262L17.9704 21.6276L21.9203 17.6777C22.1078 17.4902 22.2132 17.2358 22.2132 16.9706C22.2132 16.7054 22.1078 16.451 21.9203 16.2635C21.7328 16.0759 21.4784 15.9706 21.2132 15.9706C20.948 15.9706 20.6936 16.0759 20.5061 16.2635Z" fill="#F09D51"/>
<path d="M14.8492 21.9203L20.5061 16.2635C20.6936 16.0759 20.9479 15.9706 21.2132 15.9706C21.4784 15.9706 21.7327 16.0759 21.9203 16.2635C22.1078 16.451 22.2132 16.7054 22.2132 16.9706C22.2132 17.2358 22.1078 17.4902 21.9203 17.6777L17.9704 21.6276L29.6984 21.6262C29.964 21.6262 30.2187 21.7317 30.4064 21.9194C30.5942 22.1072 30.6997 22.3619 30.6997 22.6274C30.6997 22.893 30.5942 23.1477 30.4064 23.3354C30.2187 23.5232 29.964 23.6287 29.6984 23.6287L17.9704 23.6273L21.9203 27.5772C22.1078 27.7647 22.2132 28.0191 22.2132 28.2843C22.2132 28.5495 22.1078 28.8039 21.9203 28.9914C21.7327 29.1789 21.4784 29.2843 21.2132 29.2843C20.9479 29.2843 20.6936 29.1789 20.5061 28.9914L14.8492 23.3345C14.6617 23.147 14.5563 22.8927 14.5563 22.6274C14.5563 22.3622 14.6617 22.1079 14.8492 21.9203Z" fill="#E8E9EB"/>
</g>
<defs>
<clipPath id="clip0">
<rect width="32" height="32" fill="white" transform="translate(0 22.6274) rotate(-45)"/>
</clipPath>
</defs>
</svg>
