<svg width="254" height="54" viewBox="0 0 254 54" fill="none" xmlns="http://www.w3.org/2000/svg">
<path d="M109.018 39.8898C109.249 40.5865 109.365 41.2831 109.365 41.9798C109.365 42.909 109.192 43.7364 108.845 44.4623C108.499 45.1882 108.094 45.783 107.632 46.2476C107.112 46.8862 106.534 47.4089 105.899 47.8155C103.935 49.3253 101.638 50.4866 99.0093 51.2993C96.3807 52.112 93.8244 52.7219 91.3398 53.1285C88.8557 53.5351 86.6312 53.7818 84.6671 53.8691C82.7025 53.9558 81.3739 53.9997 80.6808 53.9997C76.1167 53.9997 71.5812 53.5931 67.0754 52.7804C62.569 51.9677 58.5249 51.0678 54.9431 50.0805C51.3613 49.0933 48.4582 48.1787 46.2336 47.3367C44.0095 46.4948 42.8972 46.0741 42.8972 46.0741C39.5463 44.9128 36.6 43.9836 34.0577 43.2869C31.5159 42.5902 29.3059 42.0383 27.4282 41.6323C25.5504 41.2256 23.9764 40.9643 22.7055 40.8483C21.4346 40.7323 20.4237 40.6743 19.6723 40.6743C19.2677 40.6743 18.95 40.6889 18.7191 40.7177C18.4882 40.7469 18.286 40.7616 18.1123 40.7616C17.8814 40.8196 17.7077 40.8483 17.5923 40.8483L17.5059 40.413C15.9459 41.9228 14.5019 43.1568 13.1727 44.1147C11.8441 45.0727 10.6018 45.8133 9.4464 46.3359C8.29095 46.8585 7.23638 47.2212 6.28321 47.4245C5.33004 47.6278 4.50688 47.7298 3.81319 47.7298C2.13774 47.7298 1.08369 47.5265 0.650005 47.1198C0.216842 46.7132 0 46.2779 0 45.8133C0 44.768 0.375443 43.8247 1.12685 42.9827C1.87774 42.1408 2.84546 41.4007 4.03003 40.7621C5.2146 40.1234 6.48549 39.5862 7.84323 39.1508C9.20096 38.7155 10.4864 38.3522 11.6996 38.0622C12.9127 37.7716 13.9528 37.5688 14.8191 37.4523C15.6859 37.3363 16.2054 37.2777 16.3791 37.2777H16.5523C16.6677 37.2777 16.7254 37.249 16.7254 37.191L16.6391 37.2777C18.43 35.3618 20.1486 32.8793 21.7949 29.8308C23.4413 26.7823 24.9727 23.5598 26.3881 20.1632C27.8036 16.7661 29.1036 13.3989 30.2877 10.0603C31.4722 6.72124 32.4686 3.83267 33.2777 1.39409C33.3931 1.4521 33.7108 1.58276 34.2308 1.78606C34.7509 1.98937 35.2849 2.26479 35.834 2.61338C36.3831 2.96198 36.8886 3.39733 37.3504 3.91995C37.8126 4.44258 38.0435 5.05249 38.0435 5.74915C38.0435 6.03921 38.0144 6.3439 37.9567 6.66375C37.899 6.98307 37.7835 7.34578 37.6098 7.75238C36.8012 9.43629 35.8912 11.3376 34.8803 13.4569C33.8694 15.5761 32.7717 17.7539 31.5871 19.9892C30.4026 22.2245 29.204 24.4164 27.9908 26.5649C26.7776 28.7134 25.5645 30.6006 24.3513 32.2265C23.6004 33.2138 22.8922 34.0991 22.2281 34.883C21.5635 35.667 20.9427 36.465 20.3649 37.2782C22.8495 37.3943 25.4636 37.6848 28.2076 38.1495C30.9517 38.6141 33.5086 39.1074 35.8772 39.6301C38.6498 40.2687 41.3367 40.9366 43.9362 41.6333C49.8866 43.0846 55.953 44.4351 62.1348 45.6831C68.3166 46.9317 74.6425 47.5557 81.1134 47.5557C86.4284 47.5557 90.8479 47.1637 94.3719 46.3798C97.896 45.5959 100.756 44.7105 102.951 43.7233C105.493 42.62 107.516 41.3427 109.018 39.8909L109.018 39.8898ZM1.90686 45.5509C2.71598 45.8995 3.65459 45.9722 4.72372 45.7689C5.79233 45.5656 6.86146 45.2028 7.93007 44.6802C8.99868 44.1576 10.0096 43.5477 10.9633 42.851C11.9164 42.1544 12.711 41.5157 13.3464 40.9351C11.3241 41.1096 9.50412 41.3997 7.88691 41.8063C6.50057 42.1549 5.20004 42.619 3.98739 43.1996C2.77422 43.7803 2.08106 44.5642 1.90738 45.5509H1.90686ZM55.9826 28.393C56.2717 28.5671 56.4163 28.6831 56.4163 28.7411C56.4163 28.9732 56.2286 29.6991 55.8531 30.9184C55.4777 32.1377 54.9431 33.4442 54.25 34.8376C53.5568 36.2309 52.7045 37.4941 51.6936 38.6261C50.6827 39.7586 49.5413 40.3246 48.2704 40.3246C47.4036 40.3246 46.5227 39.9619 45.6273 39.236C44.7318 38.5101 44.0818 37.2474 43.6772 35.4475C43.4464 35.7375 43.1718 36.0715 42.8541 36.4494C42.5364 36.8267 42.1318 37.1753 41.6409 37.4946C41.15 37.8139 40.5723 38.0899 39.9077 38.3219C39.2432 38.554 38.42 38.67 37.4377 38.67C36.1091 38.67 35.0259 38.3507 34.1877 37.712C33.35 37.0734 32.7 36.2894 32.2382 35.3602C31.7759 34.4315 31.4582 33.4876 31.285 32.5296C31.1119 31.5717 31.025 30.7443 31.025 30.0477C31.025 28.4218 31.3427 26.7238 31.9782 24.9526C32.6136 23.1814 33.4945 21.5701 34.6214 20.1188C35.7482 18.6669 37.0768 17.4769 38.6077 16.5477C40.1386 15.6185 41.8286 15.1544 43.6772 15.1544C44.9481 15.1544 45.945 15.343 46.6673 15.7204C47.3896 16.0977 48.0682 16.4897 48.7036 16.8963C48.819 16.7222 48.8913 16.5336 48.9204 16.3303C48.949 16.127 48.9927 15.9676 49.0504 15.851C49.1082 15.851 49.3682 15.9817 49.8305 16.243C50.2927 16.5043 50.7836 16.8529 51.3036 17.2882C51.8236 17.7241 52.2859 18.1882 52.69 18.6816C53.0945 19.1749 53.2968 19.6835 53.2968 20.2056C53.2968 20.6702 53.2105 21.1202 53.0368 21.5555C52.8636 21.9909 52.6614 22.4408 52.43 22.9055H52.3436C51.8814 23.7762 51.3759 24.72 50.8273 25.736C50.2782 26.752 49.7727 27.7826 49.311 28.8279C48.8487 29.8731 48.4587 30.9471 48.141 32.0504C47.8232 33.1537 47.6641 34.2277 47.6641 35.2729C47.6641 37.1889 48.0687 38.1468 48.8773 38.1468C49.6864 38.1468 50.7259 37.3483 51.9973 35.7516C53.2682 34.155 54.4237 31.7305 55.4637 28.4793C55.4637 28.4213 55.5214 28.3925 55.6373 28.3925C55.7528 28.3925 55.8682 28.3925 55.9837 28.3925L55.9826 28.393ZM43.5036 33.7928C43.5036 31.8189 43.8213 29.7864 44.4567 27.6959C45.0922 25.6059 45.7276 23.8054 46.3631 22.2961C45.8431 21.7154 45.2945 21.2362 44.7167 20.8588C44.139 20.4815 43.5036 20.2928 42.8104 20.2928C41.8286 20.2928 40.8318 20.6122 39.8209 21.2508C38.81 21.8895 37.8709 22.7168 37.0045 23.7328C36.1377 24.7488 35.43 25.8959 34.8814 27.1732C34.3328 28.4505 34.0582 29.7278 34.0582 31.0057C34.0582 31.6443 34.1019 32.283 34.1882 32.9216C34.275 33.5603 34.4773 34.1702 34.7951 34.7508C35.1128 35.3315 35.5459 35.7961 36.0951 36.1441C36.6442 36.4922 37.4096 36.6668 38.3919 36.6668C39.3737 36.6668 40.2983 36.4055 41.1646 35.8828C42.0314 35.3602 42.8109 34.6635 43.5046 33.7928H43.5036ZM66.3817 35.5348C65.5731 34.3735 65.1685 32.8349 65.1685 30.9184C65.1685 29.3505 65.3422 27.9425 65.6885 26.694C66.0353 25.4459 66.4976 24.0375 67.0748 22.4696C66.5548 23.4568 65.9048 24.6615 65.1253 26.0841C64.3453 27.5067 63.5799 28.958 62.829 30.4391C62.0781 31.9197 61.399 33.3131 60.7927 34.6196C60.1858 35.9262 59.7958 36.8983 59.6227 37.5369C59.6227 37.5369 59.5504 37.7256 59.4058 38.1029C59.2613 38.4803 59.0449 38.8723 58.7558 39.2789C58.4667 39.6855 58.1349 40.0628 57.759 40.4114C57.3835 40.76 56.9644 40.934 56.5026 40.934C55.1163 40.934 54.1917 40.3968 53.7294 39.3228C53.2672 38.2488 53.0363 36.8408 53.0363 35.0984C53.0363 33.1824 53.2672 31.2952 53.7294 29.4373C54.1917 27.5793 54.7117 25.8954 55.2895 24.3855C55.8672 22.8757 56.4163 21.613 56.9358 20.597C57.4558 19.581 57.7735 18.957 57.889 18.7244C58.2358 18.0278 58.5821 17.2004 58.929 16.2419C59.2758 15.284 59.5067 14.6014 59.6221 14.1953C59.7953 14.1953 60.113 14.3406 60.5753 14.6312C61.0376 14.9213 61.4853 15.2845 61.9185 15.7198C62.3516 16.1557 62.7416 16.6344 63.0885 17.1571C63.4353 17.6797 63.6085 18.1731 63.6085 18.6377C63.6085 19.6249 63.2616 20.7277 62.5685 21.9475C61.8753 23.1668 61.1094 24.488 60.2721 25.9106C59.4344 27.3332 58.669 28.8284 57.9758 30.3958C57.2826 31.9636 56.9358 33.6183 56.9358 35.3602C56.9358 35.8248 56.9649 36.1734 57.0226 36.4055C58.929 32.7471 60.5899 29.7132 62.0053 27.3039C63.4208 24.8941 64.6485 22.9488 65.6885 21.4682C66.7285 19.9876 67.5948 18.8263 68.2885 17.9844C68.9817 17.1424 69.5449 16.4458 69.9785 15.8944C70.4122 15.3425 70.744 14.8491 70.9754 14.4138C71.2063 13.9779 71.4091 13.3544 71.5822 12.5412C71.64 12.5412 71.8854 12.6719 72.3191 12.9332C72.7522 13.1945 73.2 13.5431 73.6623 13.9784C74.1245 14.4143 74.5577 14.8784 74.9623 15.3718C75.3668 15.8651 75.5686 16.3737 75.5686 16.8958C75.5686 17.0703 75.5254 17.3891 75.4386 17.8537C75.3523 18.3183 75.1932 18.6664 74.9623 18.899C74.5 19.8862 73.9368 20.9169 73.2723 21.9909C72.6077 23.0654 71.9722 24.1828 71.3659 25.344C70.7591 26.5053 70.2391 27.6812 69.8059 28.8713C69.3727 30.0618 69.1559 31.2377 69.1559 32.399C69.1559 33.0376 69.2282 33.5749 69.3727 34.0103C69.5173 34.4456 69.8491 34.6635 70.3691 34.6635C71.1199 34.6635 72.1168 34.0683 73.3591 32.8782C74.6014 31.6882 75.8 29.7571 76.9554 27.086C76.9554 27.086 77.0132 27.0572 77.1291 26.9992C77.3023 26.9992 77.4754 27.086 77.6491 27.2605L77.8223 27.4345C77.8223 27.5506 77.6346 28.1166 77.2591 29.1331C76.8837 30.1491 76.3491 31.267 75.656 32.4863C74.9628 33.7056 74.1105 34.8088 73.0996 35.7961C72.0887 36.7833 70.9473 37.2767 69.6764 37.2767C69.1564 37.2767 68.6073 37.1606 68.0301 36.9286C67.4524 36.6966 66.9032 36.2319 66.3838 35.5353L66.3817 35.5348ZM98.7925 34.5768C98.5616 34.9254 98.2579 35.3315 97.8825 35.7961C97.507 36.2607 97.0448 36.7107 96.4962 37.146C95.947 37.5819 95.3262 37.9446 94.633 38.2347C93.9398 38.5247 93.1598 38.67 92.2935 38.67C91.658 38.67 90.8921 38.4813 89.9966 38.104C89.1012 37.7267 88.5089 36.9861 88.2203 35.8828C87.758 36.3474 86.9785 36.9573 85.8808 37.712C84.7831 38.4667 83.4831 38.8446 81.9813 38.8446C80.7104 38.8446 79.6418 38.5393 78.7749 37.93C77.9081 37.3201 77.2149 36.58 76.6949 35.7088C76.1749 34.8376 75.7995 33.8942 75.5686 32.8782C75.3377 31.8622 75.2217 30.9184 75.2217 30.0477C75.2217 28.6544 75.5103 27.1011 76.0886 25.3879C76.6663 23.6753 77.5041 22.064 78.6018 20.5542C79.6995 19.0443 81.0286 17.7816 82.5881 16.7656C84.1481 15.7496 85.8813 15.2416 87.7877 15.2416C88.6545 15.2416 89.4485 15.3289 90.1708 15.503C90.8926 15.6775 91.514 15.9096 92.034 16.1996C92.9009 13.9931 93.6663 12.0918 94.3309 10.4946C94.9954 8.89798 95.5009 7.6928 95.8472 6.88012L96.4535 5.05092C96.6272 4.52829 96.7858 4.00566 96.9304 3.48304C97.0749 2.96041 97.1472 2.52506 97.1472 2.17647C97.2626 2.23448 97.5804 2.36514 98.1004 2.56844C98.6204 2.77174 99.1695 3.04769 99.7467 3.39576C100.324 3.74435 100.844 4.16507 101.307 4.65843C101.769 5.15179 102 5.71832 102 6.35697C102 6.64702 101.971 6.96635 101.913 7.31494C101.855 7.66354 101.74 8.06962 101.567 8.53423C101.162 9.46294 100.411 11.0455 99.3135 13.2807C98.2158 15.5165 97.0749 17.9405 95.8904 20.5531C94.7063 23.1662 93.6658 25.7355 92.7703 28.2613C91.8749 30.7872 91.4272 32.7758 91.4272 34.2271C91.4272 35.4464 91.918 36.0563 92.9003 36.0563C93.8826 36.0563 95.0958 35.4611 96.5404 34.271C97.9844 33.0805 99.2844 31.1499 100.44 28.4788C100.44 28.4788 100.498 28.45 100.613 28.392C100.844 28.392 101.047 28.4788 101.22 28.6533L101.393 28.8274C101.393 29.0594 101.205 29.7273 100.83 30.8306C100.454 31.9338 99.7758 33.1819 98.7935 34.5757L98.7925 34.5768ZM87.8735 34.3155C87.8157 34.0834 87.7866 33.6768 87.7866 33.0962C87.7866 31.4703 88.0175 29.6411 88.4798 27.6091C88.9421 25.5766 89.5198 23.5446 90.213 21.5121C89.2889 20.7575 88.2198 20.3796 87.0066 20.3796C85.8512 20.3796 84.7389 20.7423 83.6703 21.4682C82.6016 22.1942 81.663 23.1229 80.8539 24.2554C80.0453 25.3879 79.3953 26.6219 78.9044 27.9572C78.4135 29.293 78.1676 30.5991 78.1676 31.8764C78.1676 33.5603 78.673 34.7942 79.6839 35.5781C80.6948 36.3621 81.8362 36.754 83.1071 36.754C84.0311 36.754 84.9126 36.5507 85.7503 36.1447C86.588 35.7381 87.2957 35.1287 87.8735 34.3155ZM102.952 38.6705C101.277 38.6705 100.049 38.0172 99.2688 36.7112C98.4888 35.4046 98.0988 33.9387 98.0988 32.3128C98.0988 30.5708 98.3588 28.8002 98.8788 27.0002C99.3988 25.2003 99.9765 23.5164 100.612 21.9485C101.247 20.3806 101.84 18.9873 102.388 17.768C102.937 16.5487 103.269 15.6488 103.385 15.0681C103.327 15.1842 103.515 15.3294 103.948 15.5035C104.381 15.678 104.858 15.9393 105.378 16.2874C105.898 16.6355 106.389 17.086 106.851 17.6374C107.313 18.1893 107.544 18.9 107.544 19.7713C107.544 20.4679 107.226 21.2226 106.591 22.0358C105.609 23.8937 104.612 25.8682 103.601 27.9582C102.59 30.0487 102.085 32.0227 102.085 33.8812C102.085 34.5198 102.171 35.0424 102.345 35.449C102.518 35.8556 102.922 36.059 103.558 36.059C104.54 36.059 105.753 35.4637 107.198 34.2737C108.642 33.0831 109.942 31.1525 111.097 28.4814C111.097 28.4814 111.155 28.4526 111.271 28.3946C111.502 28.3946 111.704 28.4814 111.877 28.6559L112.051 28.83C112.051 28.772 111.921 29.2507 111.661 30.2672C111.401 31.2832 110.924 32.4157 110.231 33.6643C109.538 34.9128 108.599 36.0595 107.415 37.1047C106.231 38.15 104.743 38.6726 102.952 38.6726V38.6705ZM110.838 12.4545C110.549 13.0936 110.116 13.6157 109.538 14.0223C108.96 14.429 108.354 14.6323 107.718 14.6323C106.909 14.6323 106.332 14.3417 105.985 13.761C105.638 13.1804 105.465 12.5125 105.465 11.7578C105.465 10.8291 105.739 10.0739 106.288 9.49326C106.837 8.91262 107.516 8.62204 108.324 8.62204C109.133 8.62204 109.797 8.88335 110.317 9.40598C110.837 9.92861 111.097 10.5673 111.097 11.3219C111.097 11.7285 111.011 12.1059 110.837 12.4539L110.838 12.4545ZM121.584 35.5353C120.775 34.374 120.371 32.8354 120.371 30.9189C120.371 29.351 120.544 27.9431 120.891 26.6945C121.237 25.4465 121.7 24.038 122.277 22.4701C121.757 23.4573 121.107 24.662 120.327 26.0846C119.547 27.5072 118.782 28.9585 118.031 30.4397C117.28 31.9203 116.601 33.3136 115.995 34.6202C115.388 35.9267 114.998 36.8988 114.825 37.5375C114.825 37.5375 114.752 37.7261 114.608 38.1035C114.463 38.4808 114.247 38.8728 113.958 39.2794C113.669 39.686 113.337 40.0633 112.961 40.4119C112.586 40.7605 112.166 40.9345 111.705 40.9345C110.318 40.9345 109.394 40.3973 108.932 39.3233C108.469 38.2493 108.238 36.8413 108.238 35.0989C108.238 33.1829 108.469 31.2957 108.932 29.4378C109.394 27.5798 109.914 25.8959 110.492 24.3861C111.069 22.8762 111.618 21.6135 112.138 20.5975C112.658 19.5815 112.976 18.9575 113.091 18.725C113.438 18.0283 113.784 17.201 114.131 16.2425C114.478 15.2845 114.709 14.6019 114.824 14.1959C114.997 14.1959 115.315 14.3412 115.777 14.6317C116.24 14.9218 116.687 15.285 117.121 15.7204C117.554 16.1562 117.944 16.635 118.291 17.1576C118.637 17.6802 118.811 18.1736 118.811 18.6382C118.811 19.6254 118.464 20.7282 117.771 21.948C117.077 23.1673 116.311 24.4885 115.474 25.9111C114.637 27.3337 113.871 28.8289 113.178 30.3963C112.485 31.9642 112.138 33.6188 112.138 35.3607C112.138 35.8253 112.167 36.1739 112.225 36.406C114.131 32.7476 115.792 29.7137 117.207 27.3044C118.623 24.8946 119.851 22.9494 120.891 21.4688C121.931 19.9881 122.797 18.8269 123.491 17.9849C124.184 17.143 124.747 16.4463 125.181 15.8949C125.614 15.343 125.946 14.8497 126.177 14.4143C126.408 13.9784 126.611 13.355 126.784 12.5417C126.842 12.5417 127.088 12.6724 127.521 12.9337C127.954 13.195 128.402 13.5436 128.864 13.979C129.327 14.4148 129.76 14.8789 130.164 15.3723C130.569 15.8657 130.771 16.3742 130.771 16.8963C130.771 17.0708 130.728 17.3896 130.641 17.8543C130.554 18.3189 130.395 18.6669 130.164 18.8995C129.702 19.8868 129.139 20.9174 128.474 21.9914C127.81 23.0659 127.174 24.1833 126.568 25.3446C125.961 26.5058 125.441 27.6817 125.008 28.8718C124.575 30.0623 124.358 31.2382 124.358 32.3995C124.358 33.0382 124.43 33.5754 124.575 34.0108C124.719 34.4461 125.051 34.6641 125.571 34.6641C126.322 34.6641 127.319 34.0688 128.561 32.8788C129.803 31.6887 131.002 29.7576 132.158 27.0865C132.158 27.0865 132.215 27.0577 132.331 26.9997C132.504 26.9997 132.678 27.0865 132.851 27.261L133.024 27.4351C133.024 27.5511 132.837 28.1171 132.461 29.1336C132.086 30.1496 131.551 31.2675 130.858 32.4868C130.165 33.7061 129.313 34.8093 128.302 35.7966C127.291 36.7838 126.149 37.2772 124.879 37.2772C124.359 37.2772 123.809 37.1612 123.232 36.9291C122.654 36.6971 122.105 36.2325 121.586 35.5358L121.584 35.5353ZM152.955 16.8095C153.012 16.9255 153.041 17.1288 153.041 17.4189C153.041 17.8835 152.925 18.3769 152.695 18.8995C151.308 21.8607 149.806 25.1125 148.188 28.6544C146.57 32.1962 145.155 35.7673 143.942 39.3672C145.04 39.4252 146.166 39.5125 147.322 39.6285C148.477 39.7445 149.517 39.9625 150.442 40.2818C151.366 40.6011 152.117 41.0657 152.695 41.6751C153.273 42.285 153.561 43.0831 153.561 44.0703C153.561 44.825 153.388 45.5802 153.041 46.3349C152.695 47.0895 152.218 47.7575 151.611 48.3381C151.005 48.9187 150.311 49.398 149.532 49.7753C148.752 50.1527 147.929 50.3413 147.062 50.3413C145.56 50.3413 144.144 49.7607 142.816 48.5994C141.486 47.4381 140.678 45.9283 140.389 44.0703C139.349 44.1863 138.136 44.3463 136.749 44.5496C135.363 44.7529 134.034 44.9703 132.763 45.2028C131.492 45.4349 130.423 45.6962 129.556 45.9868C128.69 46.2768 128.256 46.5382 128.256 46.7707C128.083 46.0741 127.996 45.4349 127.996 44.8548C127.996 43.9836 128.141 43.2581 128.43 42.6775C128.718 42.0969 129.051 41.6323 129.426 41.2842C129.802 40.9356 130.177 40.6743 130.553 40.5002C130.929 40.3257 131.203 40.2097 131.376 40.1516C132.763 39.9196 134.207 39.7597 135.71 39.6724C137.211 39.5856 138.887 39.4837 140.736 39.3677C140.794 39.0777 140.852 38.8304 140.91 38.6271C140.967 38.4238 141.025 38.1772 141.083 37.8866C140.563 38.1186 140.014 38.3512 139.437 38.5832C138.859 38.8153 138.137 38.9313 137.27 38.9313C135.884 38.9313 134.757 38.6266 133.89 38.0167C133.023 37.4068 132.345 36.6668 131.854 35.7961C131.363 34.9248 131.016 33.9961 130.814 33.0089C130.612 32.0216 130.482 31.151 130.424 30.3958C130.424 28.8279 130.712 27.1586 131.291 25.3879C131.868 23.6168 132.692 21.9909 133.76 20.5108C134.829 19.0302 136.115 17.7962 137.617 16.809C139.118 15.8218 140.823 15.2704 142.729 15.1544C143.885 15.1544 144.867 15.2704 145.676 15.5024C146.485 15.7345 147.206 15.9958 147.842 16.2864C148.131 15.8218 148.405 15.3571 148.665 14.893C148.925 14.4284 149.084 13.9351 149.142 13.4124C149.777 13.761 150.355 14.1091 150.875 14.4577C151.337 14.7478 151.771 15.0963 152.175 15.503C152.58 15.9096 152.84 16.3449 152.955 16.8095H152.955ZM148.968 43.0256C147.986 43.0256 146.932 43.1416 145.805 43.3736C144.678 43.6057 143.249 43.7803 141.516 43.8963C141.689 43.9543 141.891 43.9836 142.122 43.9836C142.296 44.0416 142.455 44.0708 142.599 44.0708C142.744 44.0708 142.874 44.0996 142.989 44.1576C143.278 45.3189 143.842 46.3354 144.679 47.2061C145.517 48.0773 146.485 48.5126 147.582 48.5126C148.333 48.5126 149.186 48.1933 150.139 47.5547C151.092 46.916 151.569 45.9288 151.569 44.5935C151.569 44.1288 151.381 43.7515 151.006 43.4609C150.63 43.1709 149.952 43.0256 148.969 43.0256H148.968ZM141.602 35.448C142.238 32.8354 142.96 30.3383 143.769 27.9577C144.578 25.5771 145.3 23.4579 145.935 21.5994C144.953 20.7867 143.797 20.3801 142.469 20.3801C141.429 20.3801 140.389 20.6848 139.349 21.2947C138.309 21.9046 137.355 22.7027 136.489 23.6899C135.622 24.6766 134.915 25.7945 134.366 27.0431C133.817 28.2917 133.543 29.5836 133.543 30.9189C133.543 31.6156 133.601 32.3122 133.717 33.0094C133.832 33.7061 134.034 34.3301 134.323 34.882C134.612 35.4334 135.045 35.898 135.623 36.2753C136.201 36.6527 136.981 36.8413 137.963 36.8413C138.252 36.8413 138.598 36.7979 139.003 36.7107C139.407 36.6234 139.811 36.522 140.216 36.406C140.621 36.29 140.953 36.1447 141.213 35.9701C141.473 35.7961 141.603 35.6215 141.603 35.4475L141.602 35.448ZM155.815 17.0708C154.659 16.2576 153.894 15.4303 153.518 14.5884C153.143 13.7464 152.955 13.0064 152.955 12.3677C152.955 11.7291 152.998 11.2064 153.085 10.7998C153.172 10.3932 153.389 9.98714 153.735 9.58054C154.082 9.17393 154.573 8.72395 155.208 8.23059C155.844 7.73723 156.711 7.11321 157.808 6.35801H157.895C159.05 5.66135 160.321 4.93542 161.708 4.18074C163.094 3.42607 164.553 2.74352 166.084 2.13361C167.615 1.52423 169.233 1.01623 170.937 0.609628C172.641 0.203024 174.36 0.000244141 176.093 0.000244141C178.462 0.000244141 180.73 0.42096 182.896 1.26291C185.063 2.10487 186.955 3.30952 188.572 4.87741C190.19 6.44529 191.475 8.31787 192.429 10.4951C193.382 12.6724 193.859 15.0676 193.859 17.6807C193.859 21.3966 193.079 24.8225 191.519 27.9582C189.959 31.094 187.966 33.7939 185.54 36.0584C183.113 38.323 180.412 40.0795 177.437 41.3276C174.462 42.5761 171.587 43.2001 168.814 43.2001C167.659 43.2001 166.388 43.0982 165.001 42.8954C163.615 42.6921 162.329 42.3875 161.145 41.9808C159.96 41.5742 158.964 41.0375 158.155 40.3696C157.346 39.7017 156.941 38.9031 156.941 37.9744C156.941 37.5098 157.086 37.1324 157.375 36.8418C157.663 36.5518 158.025 36.3192 158.458 36.1452C158.891 35.9706 159.324 35.84 159.758 35.7532C160.191 35.6665 160.581 35.6226 160.928 35.6226C160.928 34.1132 161.246 32.2114 161.881 29.9181C162.516 27.6248 163.253 25.3456 164.09 23.0811C164.928 20.8165 165.723 18.7406 166.474 16.8534C167.225 14.9662 167.687 13.6743 167.86 12.9776L168.467 11.1484C168.64 10.6258 168.799 10.1032 168.943 9.58054C169.088 9.05791 169.16 8.62256 169.16 8.27397C169.333 8.33198 169.68 8.448 170.2 8.62204C170.72 8.79659 171.269 9.05791 171.846 9.40598C172.424 9.75405 172.944 10.2046 173.406 10.7559C173.869 11.3073 174.1 11.9318 174.1 12.6285C174.1 12.9186 174.071 13.2238 174.013 13.5431C173.955 13.8624 173.84 14.2251 173.666 14.6317C173.32 15.2124 172.886 16.069 172.366 17.201C171.846 18.3335 171.269 19.5962 170.633 20.9895C169.998 22.3828 169.362 23.8493 168.727 25.3879C168.091 26.9266 167.499 28.393 166.951 29.7864C166.401 31.1797 165.925 32.4424 165.521 33.5749C165.116 34.7074 164.885 35.5348 164.827 36.0574C165.751 36.3474 166.531 36.6527 167.167 36.972C167.802 37.2913 168.178 37.4512 168.294 37.4512V37.364L168.467 37.538C168.641 37.7125 168.727 37.8286 168.727 37.8866C168.727 38.0611 168.67 38.1918 168.554 38.2785C168.438 38.3658 168.323 38.4092 168.207 38.4092C167.976 38.4092 167.543 38.2932 166.907 38.0611C166.272 37.8291 165.521 37.5965 164.654 37.3645C164.596 37.6545 164.568 37.9451 164.568 38.2357C164.568 38.5258 164.568 38.8163 164.568 39.1069C164.106 39.0489 163.644 38.9036 163.182 38.671C162.777 38.497 162.387 38.2937 162.012 38.0617C161.636 37.8296 161.362 37.481 161.188 37.0164C160.38 37.0744 159.744 37.1617 159.282 37.2777C158.82 37.3937 158.589 37.597 158.589 37.8876C158.589 38.2942 158.892 38.6716 159.499 39.0202C160.106 39.3688 160.857 39.6734 161.752 39.9348C162.647 40.1961 163.601 40.3994 164.612 40.5447C165.622 40.69 166.532 40.7626 167.342 40.7626C169.132 40.7626 170.966 40.5159 172.844 40.022C174.722 39.5287 176.527 38.7881 178.261 37.8014C179.994 36.8141 181.582 35.5802 183.027 34.0996C184.472 32.619 185.714 30.8625 186.753 28.8305C187.736 27.2626 188.472 25.608 188.963 23.866C189.454 22.1241 189.7 20.3822 189.7 18.6403C189.7 16.5503 189.367 14.6772 188.703 13.0226C188.038 11.3679 187.143 9.97407 186.016 8.84206C184.89 7.70953 183.605 6.83883 182.16 6.22944C180.716 5.61954 179.185 5.31485 177.567 5.31485C176.238 5.31485 174.981 5.41676 173.797 5.62006C172.613 5.82336 171.501 6.09931 170.461 6.44738C167.457 7.72468 165.03 9.00199 163.182 10.2798C161.333 11.5571 159.888 12.6896 158.848 13.6769C157.808 14.6641 157.072 15.4768 156.638 16.1155C156.205 16.7541 155.931 17.0735 155.815 17.0735L155.815 17.0708Z" fill="#F09D51"/>
<path d="M212.663 21.4256C212.721 21.7157 212.75 21.9916 212.75 22.2529C212.75 22.5143 212.75 22.7902 212.75 23.0803C212.75 25.1702 212.302 27.1594 211.407 29.0466C210.511 30.9338 209.601 32.4578 208.677 33.6191C208.907 33.7351 209.254 33.7931 209.717 33.7931C210.237 33.7931 210.727 33.6912 211.19 33.4884C211.652 33.2851 212.085 33.0525 212.49 32.7917C212.894 32.5304 213.241 32.2984 213.53 32.0951C213.819 31.8918 214.05 31.7899 214.223 31.7899C214.396 31.7899 214.483 31.9351 214.483 32.2257C214.483 32.4578 214.382 32.7917 214.18 33.2276C213.977 33.663 213.66 34.0983 213.227 34.5342C212.793 34.9695 212.187 35.3469 211.407 35.6667C210.627 35.986 209.688 36.146 208.59 36.146C207.897 36.146 207.174 36.0007 206.423 35.7101C206.135 36.1167 205.456 36.712 204.387 37.4954C203.318 38.2793 202.062 38.6713 200.618 38.6713C199.404 38.6713 198.379 38.41 197.541 37.8874C196.703 37.3647 196.025 36.6973 195.505 35.8841C194.985 35.0714 194.595 34.2002 194.335 33.2715C194.075 32.3428 193.945 31.4423 193.945 30.5716C193.945 28.3071 194.32 26.2892 195.072 24.518C195.823 22.7468 196.675 21.2228 197.628 19.9455C198.581 18.6682 199.52 17.6664 200.444 16.941C201.368 16.215 202.004 15.7943 202.351 15.6783C202.466 15.6783 202.625 15.7509 202.828 15.8962C203.03 16.0415 203.362 16.491 203.824 17.2462C204.287 16.8976 204.807 16.5782 205.384 16.2882C205.962 15.9976 206.714 15.8523 207.638 15.8523C208.562 15.8523 209.342 16.0703 209.977 16.5056C210.613 16.9415 211.118 17.4495 211.493 18.0296C211.869 18.6102 212.158 19.2201 212.36 19.8588C212.563 20.4974 212.664 21.0201 212.664 21.4267L212.663 21.4256ZM200.878 36.4935C201.166 36.4935 201.599 36.3775 202.178 36.1454C202.755 35.9134 203.448 35.4195 204.257 34.6648C202.755 33.7361 201.758 32.4583 201.268 30.8324C200.777 29.2065 200.531 27.6099 200.531 26.042C200.531 25.6934 200.545 25.3307 200.574 24.9534C200.602 24.576 200.646 24.2128 200.704 23.8647C199.722 24.91 198.898 26.1005 198.234 27.4358C197.57 28.7717 197.237 30.223 197.237 31.7909C197.237 33.3588 197.555 34.5054 198.191 35.2314C198.826 35.9573 199.722 36.378 200.878 36.494V36.4935ZM208.243 27.5226C208.359 27.174 208.446 26.7967 208.503 26.3901C208.561 25.9835 208.59 25.5774 208.59 25.1708C208.59 24.3001 208.561 23.4869 208.503 22.7322C208.446 21.9775 208.243 21.5422 207.897 21.4256C207.434 21.4256 207.001 21.6577 206.597 22.1223C206.192 22.5869 205.831 23.1529 205.513 23.8208C205.196 24.4887 204.936 25.2142 204.733 25.9981C204.531 26.782 204.43 27.5221 204.43 28.2187C204.43 28.8574 204.546 29.6706 204.777 30.6573C205.007 31.6446 205.47 32.2539 206.163 32.4865C206.625 31.8479 207.03 31.1219 207.376 30.3093C207.723 29.496 208.011 28.5673 208.243 27.5221L208.243 27.5226ZM224.969 35.5355C224.16 34.3743 223.756 32.8356 223.756 30.9192C223.756 29.3513 223.929 27.9433 224.276 26.6948C224.622 25.4467 225.085 24.0382 225.662 22.4704C225.142 23.4576 224.492 24.6623 223.712 26.0848C222.932 27.5074 222.167 28.9588 221.416 30.4399C220.665 31.9205 219.986 33.3138 219.38 34.6204C218.773 35.927 218.383 36.8991 218.21 37.5377C218.21 37.5377 218.137 37.7264 217.993 38.1037C217.848 38.4811 217.632 38.873 217.343 39.2796C217.054 39.6862 216.722 40.0636 216.346 40.4122C215.971 40.7608 215.552 40.9348 215.09 40.9348C213.703 40.9348 212.779 40.3975 212.317 39.3235C211.854 38.2495 211.623 36.8416 211.623 35.0991C211.623 33.1832 211.854 31.296 212.317 29.438C212.779 27.5801 213.299 25.8962 213.877 24.3863C214.454 22.8764 215.003 21.6138 215.523 20.5978C216.043 19.5818 216.361 18.9578 216.476 18.7252C216.823 18.0285 217.169 17.2012 217.516 16.2427C217.863 15.2847 218.094 14.6022 218.209 14.1961C218.382 14.1961 218.7 14.3414 219.162 14.632C219.625 14.922 220.072 15.2853 220.506 15.7206C220.939 16.1565 221.329 16.6352 221.676 17.1578C222.022 17.6805 222.196 18.1738 222.196 18.6384C222.196 19.6257 221.849 20.7284 221.156 21.9482C220.462 23.1675 219.696 24.4887 218.859 25.9113C218.022 27.3339 217.256 28.8292 216.563 30.3965C215.87 31.9644 215.523 33.6191 215.523 35.361C215.523 35.8256 215.552 36.1742 215.61 36.4062C217.516 32.7478 219.177 29.714 220.592 27.3047C222.008 24.8948 223.236 22.9496 224.276 21.469C225.316 19.9884 226.182 18.8271 226.876 17.9852C227.569 17.1432 228.132 16.4465 228.566 15.8952C228.999 15.3433 229.331 14.8499 229.563 14.4146C229.793 13.9787 229.996 13.3552 230.169 12.542C230.227 12.542 230.473 12.6726 230.906 12.934C231.339 13.1953 231.787 13.5439 232.249 13.9792C232.712 14.4151 233.145 14.8792 233.549 15.3725C233.954 15.8659 234.156 16.3744 234.156 16.8965C234.156 17.0711 234.113 17.3899 234.026 17.8545C233.939 18.3191 233.78 18.6672 233.549 18.8998C233.087 19.887 232.524 20.9176 231.859 21.9916C231.195 23.0662 230.559 24.1835 229.953 25.3448C229.346 26.5061 228.826 27.682 228.393 28.872C227.96 30.0626 227.743 31.2385 227.743 32.3998C227.743 33.0384 227.815 33.5757 227.96 34.011C228.104 34.4464 228.436 34.6643 228.956 34.6643C229.707 34.6643 230.704 34.069 231.946 32.879C233.188 31.689 234.387 29.7579 235.543 27.0867C235.543 27.0867 235.6 27.058 235.716 27C235.889 27 236.063 27.0867 236.236 27.2613L236.409 27.4353C236.409 27.5513 236.222 28.1174 235.846 29.1339C235.471 30.1499 234.936 31.2677 234.243 32.487C233.55 33.7063 232.698 34.8096 231.687 35.7968C230.676 36.7841 229.534 37.2775 228.264 37.2775C227.744 37.2775 227.194 37.1614 226.617 36.9294C226.039 36.6973 225.49 36.2327 224.971 35.5361L224.969 35.5355ZM253.826 30.6578C253.942 30.7739 254 30.8899 254 31.0064C253.133 32.6323 252.122 34.0549 250.966 35.2742C249.984 36.3195 248.728 37.2774 247.197 38.1481C245.666 39.0194 243.89 39.4547 241.867 39.4547C240.366 39.4547 239.095 39.1354 238.054 38.4967C237.014 37.8581 236.176 37.0595 235.541 36.1015C234.906 35.1436 234.458 34.1129 234.198 33.0097C233.938 31.9064 233.808 30.9192 233.808 30.0485C233.808 28.074 234.126 26.1727 234.761 24.3435C235.396 22.5143 236.263 20.8742 237.361 19.4224C238.459 17.9711 239.701 16.8098 241.087 15.9386C242.474 15.0673 243.918 14.632 245.421 14.632C247.269 14.632 248.699 15.1546 249.71 16.1999C250.721 17.2451 251.226 18.3771 251.226 19.5969C251.226 20.8162 250.966 21.9775 250.446 23.0808C249.926 24.1841 249.219 25.1567 248.323 25.9986C247.428 26.8406 246.374 27.5085 245.16 28.0018C243.947 28.4952 242.676 28.7419 241.347 28.7419C240.423 28.7419 239.643 28.6405 239.007 28.4372C238.372 28.2339 237.91 27.9872 237.621 27.6966C237.274 28.7419 237.101 29.7871 237.101 30.8324C237.101 32.4583 237.606 33.9243 238.617 35.2308C239.628 36.5374 240.971 37.1907 242.647 37.1907C243.918 37.1907 245.203 36.8421 246.503 36.1454C247.803 35.4488 248.829 34.8389 249.58 34.3162C250.446 33.6776 251.125 33.1262 251.616 32.6616C252.107 32.197 252.468 31.805 252.699 31.4857C252.93 31.1664 253.089 30.9343 253.176 30.789C253.262 30.6437 253.364 30.5716 253.479 30.5716C253.594 30.5716 253.71 30.6004 253.826 30.6584L253.826 30.6578ZM240.134 22.5582C239.325 23.7194 238.603 24.9967 237.968 26.3906C238.141 26.4486 238.516 26.4779 239.095 26.4779C239.961 26.4779 240.799 26.2746 241.608 25.868C242.417 25.4614 243.124 24.968 243.731 24.3874C244.338 23.8067 244.829 23.1827 245.204 22.5148C245.58 21.8469 245.767 21.2809 245.767 20.8162C245.767 20.0616 245.363 19.6837 244.554 19.6837C243.977 19.6837 243.298 19.9016 242.518 20.337C241.738 20.7729 240.943 21.5129 240.135 22.5582H240.134Z" fill="#F09D51"/>
</svg>
