<svg width="22" height="30" viewBox="0 0 22 30" fill="none" xmlns="http://www.w3.org/2000/svg">
<path d="M12.5714 12.0003V9.00021C12.5714 8.60237 12.4059 8.22083 12.1112 7.93952C11.8165 7.65821 11.4168 7.50017 11 7.50017C10.5832 7.50017 10.1835 7.65821 9.88883 7.93952C9.59413 8.22083 9.42857 8.60237 9.42857 9.00021V12.0003H6.28571C5.86895 12.0003 5.46925 12.1583 5.17455 12.4396C4.87985 12.7209 4.71429 13.1025 4.71429 13.5003C4.71429 13.8981 4.87985 14.2797 5.17455 14.561C5.46925 14.8423 5.86895 15.0003 6.28571 15.0003H9.42857V18.0004C9.42857 18.3982 9.59413 18.7798 9.88883 19.0611C10.1835 19.3424 10.5832 19.5005 11 19.5005C11.4168 19.5005 11.8165 19.3424 12.1112 19.0611C12.4059 18.7798 12.5714 18.3982 12.5714 18.0004V15.0003H15.7143C16.1311 15.0003 16.5308 14.8423 16.8255 14.561C17.1202 14.2797 17.2857 13.8981 17.2857 13.5003C17.2857 13.1025 17.1202 12.7209 16.8255 12.4396C16.5308 12.1583 16.1311 12.0003 15.7143 12.0003H12.5714ZM4.71429 0H17.2857C18.536 0 19.7351 0.474117 20.6192 1.31805C21.5033 2.16198 22 3.3066 22 4.5001V27.0006C21.9999 27.5822 21.8226 28.1513 21.4899 28.6385C21.1571 29.1256 20.6831 29.51 20.1257 29.7448C19.5682 29.9795 18.9513 30.0545 18.35 29.9607C17.7487 29.8668 17.189 29.6082 16.7389 29.2162L12.0591 25.1406C11.7696 24.8884 11.3919 24.7487 11 24.7487C10.6081 24.7487 10.2304 24.8884 9.94086 25.1406L5.26114 29.2162C4.81104 29.6082 4.25128 29.8668 3.64998 29.9607C3.04868 30.0545 2.43177 29.9795 1.87432 29.7448C1.31687 29.51 0.842917 29.1256 0.510149 28.6385C0.177381 28.1513 0.00014094 27.5822 0 27.0006V4.5001C0 3.3066 0.496682 2.16198 1.38078 1.31805C2.26488 0.474117 3.46398 0 4.71429 0Z" fill="#F09D51"/>
</svg>
