<svg width="44" height="55" viewBox="0 0 44 55" fill="none" xmlns="http://www.w3.org/2000/svg">
<path fill-rule="evenodd" clip-rule="evenodd" d="M34.5714 0H9.42857C6.92796 0 4.52977 0.869213 2.76156 2.41642C0.993365 3.96363 0 6.0621 0 8.25019V49.5011C0.000281881 50.5674 0.354761 51.6106 1.0203 52.5038C1.68584 53.397 2.63373 54.1017 3.74863 54.5321C4.86353 54.9624 6.09736 55.1 7.29996 54.9279C8.50257 54.7559 9.62209 54.2817 10.5223 53.563L19.8817 46.0911C20.4607 45.6288 21.2162 45.3726 22 45.3726C22.7838 45.3726 23.5393 45.6288 24.1183 46.0911L33.4777 53.563C34.3779 54.2817 35.4974 54.7559 36.7 54.9279C37.9026 55.1 39.1365 54.9624 40.2514 54.5321C41.3663 54.1017 42.3142 53.397 42.9797 52.5038C43.6452 51.6106 43.9997 50.5674 44 49.5011V8.25019C44 6.0621 43.0066 3.96363 41.2384 2.41642C39.4702 0.869213 37.072 0 34.5714 0ZM31.6143 20.7121C31.7686 20.8323 31.8843 20.9949 31.9471 21.18C32.0751 21.559 31.9661 21.9769 31.6691 22.2449L27.1331 26.3263L28.9621 32.7255C29.0177 32.9222 29.0117 33.1313 28.9449 33.3245C28.8781 33.5177 28.7537 33.6858 28.5885 33.8063C28.4233 33.9267 28.2252 33.9937 28.0208 33.9981C27.8163 34.0026 27.6155 33.9444 27.4451 33.8313L22.0001 30.2018L16.5551 33.8313C16.3884 33.9427 16.1921 34.0015 15.9916 34C15.7912 33.9984 15.5958 33.9367 15.4308 33.8228C15.2659 33.7088 15.139 33.548 15.0667 33.361C14.9943 33.1741 14.9798 32.9698 15.025 32.7745L16.5151 26.3233L12.302 22.2169C12.1644 22.0828 12.0684 21.9119 12.0254 21.7246C11.9824 21.5374 11.9942 21.3417 12.0595 21.161C12.1248 20.9804 12.2408 20.8223 12.3936 20.7058C12.5464 20.5893 12.7295 20.5193 12.921 20.5041L18.6221 20.0512L21.0891 14.5899C21.1678 14.4141 21.2958 14.2649 21.4575 14.1602C21.6192 14.0555 21.8078 13.9999 22.0004 14C22.193 14.0001 22.3815 14.056 22.5431 14.1608C22.7047 14.2657 22.8325 14.415 22.9111 14.5909L25.3781 20.0512L31.0791 20.5041C31.274 20.5197 31.4601 20.592 31.6143 20.7121Z" fill="#F09D51"/>
</svg>
