<svg width="249" height="36" viewBox="0 0 249 36" fill="none" xmlns="http://www.w3.org/2000/svg">
<path d="M1.81898 27.8933C1.29579 27.8933 0.862108 27.715 0.516936 27.3575C0.172421 27.0002 0 26.5597 0 26.0356V1.85781C0 1.33388 0.178015 0.893648 0.535034 0.536123C0.891393 0.178927 1.31948 0.000329517 1.81898 0.000329517C2.34185 0.000329517 2.78177 0.178598 3.13814 0.536123C3.49482 0.89332 3.67317 1.33388 3.67317 1.85781V24.1789H16.5834C17.1066 24.1789 17.5462 24.3571 17.9032 24.7147C18.2596 25.0715 18.4382 25.5125 18.4382 26.0356C18.4382 26.5597 18.2596 27 17.9032 27.3575C17.5465 27.7146 17.1066 27.8933 16.5834 27.8933H1.81898ZM30.6702 28.0364C28.9348 28.0364 27.3776 27.6016 25.9985 26.7322C24.6194 25.8635 23.5319 24.6847 22.7352 23.1966C21.9387 21.7085 21.5402 20.0241 21.5402 18.1432C21.5402 16.2623 21.9742 14.5715 22.8422 13.0716C23.7099 11.5716 24.887 10.387 26.373 9.51808C27.8588 8.64916 29.5291 8.21419 31.3834 8.21419C33.2379 8.21419 34.9021 8.64916 36.3762 9.51808C37.8501 10.387 39.0212 11.5716 39.8893 13.0716C40.7571 14.5715 41.1909 16.2623 41.1909 18.1432H39.8001C39.8001 20.0241 39.4016 21.7082 38.6057 23.1966C37.809 24.6847 36.7211 25.8635 35.342 26.7322C33.9634 27.6016 32.4064 28.0364 30.6702 28.0364ZM31.3834 24.8222C32.596 24.8222 33.6778 24.5302 34.6287 23.947C35.5797 23.3638 36.3286 22.5664 36.8755 21.5543C37.4223 20.5424 37.6962 19.4052 37.6962 18.1435C37.6962 16.8577 37.4223 15.7087 36.8755 14.6974C36.3286 13.6855 35.5797 12.8877 34.6287 12.3045C33.6778 11.7212 32.596 11.4296 31.3834 11.4296C30.1948 11.4296 29.1188 11.7212 28.1561 12.3045C27.1933 12.8877 26.4325 13.6855 25.8733 14.6974C25.315 15.709 25.0357 16.8581 25.0357 18.1435C25.0357 19.4052 25.315 20.5424 25.8733 21.5543C26.4325 22.5664 27.1933 23.3633 28.1561 23.947C29.1188 24.5302 30.1948 24.8222 31.3834 24.8222ZM39.3719 27.9293C38.8488 27.9293 38.4152 27.7562 38.0703 27.4111C37.7254 27.0662 37.5531 26.6312 37.5531 26.1077V20.6435L38.2308 16.8577L41.1907 18.1435V26.1079C41.1907 26.6315 41.0181 27.0662 40.6735 27.4115C40.3288 27.7565 39.8947 27.9295 39.3717 27.9295L39.3719 27.9293ZM63.0878 27.9293C62.5646 27.9293 62.1309 27.7562 61.786 27.4111C61.4414 27.0662 61.2688 26.6312 61.2688 26.1077V17.322C61.2688 15.9647 61.0192 14.8579 60.52 14.0005C60.0207 13.1434 59.3489 12.5065 58.5048 12.0896C57.6611 11.6728 56.6925 11.4645 55.5983 11.4645C54.5996 11.4645 53.6964 11.6669 52.888 12.0718C52.0796 12.4765 51.4379 13.0179 50.9621 13.6967C50.4869 14.3755 50.2489 15.1548 50.2489 16.0359H48.0023C48.0023 14.536 48.365 13.1968 49.0898 12.0181C49.8151 10.8394 50.8081 9.90493 52.0677 9.21427C53.3279 8.52361 54.7425 8.17859 56.3115 8.17859C57.9521 8.17859 59.4202 8.52953 60.7161 9.23173C62.0118 9.93458 63.0339 10.964 63.7828 12.321C64.5316 13.6782 64.9062 15.3449 64.9062 17.321V26.1065C64.9062 26.6301 64.7338 27.0648 64.3892 27.4102C64.0443 27.7551 63.6104 27.9281 63.0872 27.9281L63.0878 27.9293ZM48.4304 27.9293C47.9071 27.9293 47.4734 27.7562 47.1286 27.4111C46.7839 27.0662 46.6113 26.6312 46.6113 26.1077V10.1791C46.6113 9.63144 46.7839 9.19121 47.1286 8.8574C47.4732 8.52426 47.9071 8.35753 48.4304 8.35753C48.9772 8.35753 49.4171 8.52426 49.7501 8.8574C50.0829 9.19121 50.2494 9.63144 50.2494 10.1791V26.1077C50.2494 26.6312 50.0829 27.0659 49.7501 27.4111C49.4176 27.7562 48.9772 27.9293 48.4304 27.9293ZM79.7782 28.0364C77.924 28.0364 76.2537 27.6016 74.7679 26.7322C73.2818 25.8635 72.1047 24.6789 71.237 23.1788C70.3691 21.6789 69.935 19.9881 69.935 18.1073C69.935 16.2264 70.3336 14.5422 71.1301 13.0538C71.9268 11.5657 73.0142 10.387 74.3933 9.51808C75.7724 8.64916 77.3297 8.21419 79.0651 8.21419C80.4678 8.21419 81.764 8.50615 82.9525 9.08939C84.1411 9.67262 85.14 10.4645 85.9482 11.4642V1.82157C85.9482 1.27391 86.1205 0.833677 86.4654 0.499876C86.8098 0.166735 87.2439 0 87.7672 0C88.3141 0 88.7536 0.166735 89.087 0.499876C89.4197 0.833677 89.5862 1.27391 89.5862 1.82157V18.1069C89.5862 19.9878 89.1521 21.6785 88.2844 23.1786C87.4165 24.6785 86.2452 25.8631 84.7715 26.732C83.2974 27.6012 81.633 28.0359 79.7785 28.0359L79.7782 28.0364ZM79.7782 24.8222C80.9906 24.8222 82.0727 24.5302 83.0235 23.947C83.9746 23.3638 84.7235 22.5601 85.2703 21.5362C85.8172 20.5124 86.0909 19.3696 86.0909 18.1076C86.0909 16.8218 85.8172 15.6791 85.2703 14.679C84.7235 13.6792 83.9746 12.8874 83.0235 12.3041C82.0727 11.7209 80.9906 11.4293 79.7782 11.4293C78.5897 11.4293 77.5137 11.7209 76.5509 12.3041C75.5882 12.8874 74.8274 13.6792 74.2682 14.679C73.7098 15.6791 73.4306 16.8218 73.4306 18.1076C73.4306 19.3696 73.7098 20.5124 74.2682 21.5362C74.8274 22.5601 75.5882 23.3633 76.5509 23.947C77.5137 24.5302 78.5897 24.8222 79.7782 24.8222ZM98.1805 27.8933C97.6574 27.8933 97.2236 27.7207 96.8785 27.3753C96.534 27.0301 96.3615 26.5957 96.3615 26.0717V10.1791C96.3615 9.63144 96.534 9.19121 96.8785 8.8574C97.2233 8.52426 97.6574 8.35753 98.1805 8.35753C98.7273 8.35753 99.167 8.52426 99.4998 8.8574C99.833 9.19121 99.9993 9.63144 99.9993 10.1791V26.0717C99.9993 26.5957 99.8328 27.0299 99.4998 27.3753C99.167 27.7207 98.7271 27.8933 98.1805 27.8933ZM98.1805 5.17934C97.5386 5.17934 96.9854 4.94703 96.5221 4.48308C96.0586 4.01879 95.8269 3.4652 95.8269 2.82231C95.8269 2.17942 96.0586 1.6255 96.5221 1.16154C96.9854 0.697257 97.5386 0.465277 98.1805 0.465277C98.8226 0.465277 99.3749 0.697257 99.8388 1.16154C100.302 1.6255 100.534 2.17942 100.534 2.82231C100.534 3.4652 100.302 4.01846 99.8388 4.48308C99.3753 4.94703 98.8226 5.17934 98.1805 5.17934ZM123.251 27.9293C122.728 27.9293 122.295 27.7562 121.95 27.4111C121.605 27.0662 121.432 26.6312 121.432 26.1077V17.322C121.432 15.9647 121.183 14.8579 120.684 14.0005C120.184 13.1434 119.512 12.5065 118.668 12.0896C117.825 11.6728 116.856 11.4645 115.762 11.4645C114.763 11.4645 113.86 11.6669 113.052 12.0718C112.243 12.4765 111.602 13.0179 111.126 13.6967C110.65 14.3755 110.413 15.1548 110.413 16.0359H108.166C108.166 14.536 108.528 13.1968 109.253 12.0181C109.979 10.8394 110.972 9.90493 112.231 9.21427C113.492 8.52361 114.906 8.17859 116.475 8.17859C118.116 8.17859 119.584 8.52953 120.88 9.23173C122.175 9.93458 123.198 10.964 123.946 12.321C124.695 13.6782 125.07 15.3449 125.07 17.321V26.1065C125.07 26.6301 124.897 27.0648 124.553 27.4102C124.208 27.7551 123.774 27.9281 123.251 27.9281L123.251 27.9293ZM108.594 27.9293C108.071 27.9293 107.637 27.7562 107.292 27.4111C106.947 27.0662 106.775 26.6312 106.775 26.1077V10.1791C106.775 9.63144 106.947 9.19121 107.292 8.8574C107.637 8.52426 108.071 8.35753 108.594 8.35753C109.141 8.35753 109.581 8.52426 109.914 8.8574C110.246 9.19121 110.413 9.63144 110.413 10.1791V26.1077C110.413 26.6312 110.246 27.0659 109.914 27.4111C109.581 27.7562 109.141 27.9293 108.594 27.9293ZM139.229 28.0364C137.446 28.0364 135.87 27.6136 134.503 26.7683C133.136 25.9232 132.06 24.7563 131.276 23.2684C130.492 21.7804 130.099 20.0718 130.099 18.1435C130.099 16.1908 130.521 14.4707 131.365 12.9829C132.209 11.4948 133.368 10.328 134.842 9.48283C136.316 8.63762 138.016 8.21484 139.942 8.21484C141.844 8.21484 143.532 8.63762 145.006 9.48283C146.48 10.328 147.639 11.4948 148.483 12.9829C149.327 14.4707 149.749 16.1908 149.749 18.1435H147.645C147.645 20.0722 147.283 21.7804 146.557 23.2684C145.832 24.7563 144.84 25.9232 143.579 26.7683C142.319 27.6136 140.869 28.0364 139.229 28.0364ZM139.871 36C138.183 36 136.602 35.6668 135.127 35.0003C133.654 34.3332 132.405 33.3574 131.383 32.0715C131.074 31.6665 130.961 31.2502 131.044 30.8216C131.128 30.393 131.36 30.0476 131.74 29.7857C132.168 29.5 132.613 29.4048 133.077 29.5C133.54 29.5951 133.915 29.8332 134.2 30.2141C134.842 31.0237 135.65 31.6546 136.625 32.1071C137.6 32.5593 138.705 32.7852 139.942 32.7852C141.083 32.7852 142.135 32.5114 143.098 31.9642C144.061 31.4165 144.828 30.6072 145.399 29.5355C145.97 28.4643 146.255 27.1544 146.255 25.6068V20.5358L147.432 17.3929L149.75 18.1429V25.8572C149.75 27.738 149.333 29.4462 148.502 30.982C147.67 32.5177 146.51 33.7379 145.024 34.6428C143.538 35.5475 141.821 35.9998 139.871 35.9998V36ZM139.942 24.8218C141.178 24.8218 142.272 24.5358 143.223 23.9648C144.174 23.393 144.917 22.6075 145.452 21.6077C145.987 20.6076 146.254 19.4527 146.254 18.1435C146.254 16.8337 145.987 15.6735 145.452 14.6615C144.917 13.6496 144.174 12.8577 143.223 12.2867C142.272 11.715 141.178 11.4296 139.942 11.4296C138.705 11.4296 137.612 11.7153 136.661 12.2867C135.71 12.8577 134.961 13.6496 134.414 14.6615C133.867 15.6735 133.594 16.834 133.594 18.1435C133.594 19.4527 133.868 20.6076 134.414 21.6077C134.961 22.6075 135.71 23.3932 136.661 23.9648C137.612 24.5358 138.705 24.8218 139.942 24.8218ZM157.381 27.8928C156.858 27.8928 156.418 27.7146 156.062 27.3571C155.705 27 155.527 26.5594 155.527 26.0354V1.85749C155.527 1.30983 155.705 0.863334 156.062 0.51833C156.418 0.172996 156.859 0.000329517 157.381 0.000329517H163.836C165.881 0.000329517 167.741 0.339401 169.417 1.01821C171.094 1.69701 172.55 2.66116 173.786 3.91104C175.022 5.16089 175.974 6.6312 176.639 8.3216C177.305 10.0124 177.638 11.8814 177.638 13.9287C177.638 15.9763 177.305 17.8512 176.639 19.5535C175.973 21.2558 175.022 22.7324 173.786 23.9823C172.55 25.2322 171.094 26.1963 169.417 26.8751C167.741 27.5537 165.881 27.8928 163.836 27.8928H157.381ZM159.235 24.6073H163.836C165.833 24.6073 167.598 24.149 169.132 23.2322C170.666 22.3155 171.872 21.0535 172.752 19.4464C173.631 17.8394 174.072 16.0003 174.072 13.9287C174.072 11.8336 173.631 9.98863 172.752 8.39311C171.872 6.79792 170.666 5.54807 169.132 4.64321C167.598 3.73837 165.833 3.28594 163.836 3.28594H159.235V24.6073ZM191.938 28.0359C190.012 28.0359 188.313 27.6131 186.839 26.768C185.365 25.9227 184.206 24.7558 183.362 23.2682C182.518 21.78 182.096 20.0715 182.096 18.1432C182.096 16.1905 182.518 14.4704 183.362 12.9826C184.206 11.4945 185.365 10.3277 186.839 9.48249C188.313 8.63728 190.013 8.21453 191.938 8.21453C193.84 8.21453 195.529 8.63728 197.003 9.48249C198.477 10.3277 199.636 11.4945 200.48 12.9826C201.324 14.4704 201.746 16.1905 201.746 18.1432C201.746 20.0718 201.33 21.78 200.498 23.2682C199.666 24.7558 198.512 25.9227 197.039 26.768C195.564 27.6131 193.864 28.0359 191.939 28.0359H191.938ZM191.938 24.8218C193.175 24.8218 194.269 24.5358 195.22 23.9648C196.171 23.393 196.913 22.6075 197.448 21.6077C197.984 20.6076 198.251 19.4527 198.251 18.1435C198.251 16.8337 197.984 15.6735 197.448 14.6615C196.913 13.6496 196.171 12.8577 195.22 12.2867C194.269 11.715 193.175 11.4296 191.938 11.4296C190.702 11.4296 189.609 11.7153 188.657 12.2867C187.706 12.8577 186.958 13.6496 186.411 14.6615C185.864 15.6735 185.591 16.834 185.591 18.1435C185.591 19.4527 185.864 20.6076 186.411 21.6077C186.958 22.6075 187.706 23.3932 188.657 23.9648C189.608 24.5358 190.702 24.8218 191.938 24.8218ZM223.643 27.9288C223.12 27.9288 222.686 27.7558 222.341 27.4109C221.996 27.0659 221.824 26.6308 221.824 26.1072V17.3217C221.824 15.9644 221.574 14.8576 221.075 14.0002C220.576 13.1431 219.904 12.5061 219.06 12.0893C218.216 11.6725 217.247 11.4642 216.153 11.4642C215.155 11.4642 214.251 11.6665 213.443 12.0715C212.635 12.4762 211.993 13.0176 211.517 13.6964C211.042 14.3752 210.804 15.1545 210.804 16.0356H208.557C208.557 14.5356 208.92 13.1965 209.645 12.0178C210.37 10.8391 211.363 9.90461 212.623 9.21393C213.883 8.52327 215.297 8.17828 216.866 8.17828C218.507 8.17828 219.975 8.52921 221.271 9.23141C222.567 9.93427 223.589 10.9637 224.338 12.3206C225.087 13.6779 225.46 15.3446 225.46 17.3207V26.1063C225.46 26.6299 225.289 27.0646 224.943 27.4097C224.599 27.7549 224.165 27.9279 223.642 27.9279L223.643 27.9288ZM208.985 27.9288C208.462 27.9288 208.028 27.7558 207.684 27.4109C207.339 27.0659 207.166 26.6308 207.166 26.1072V10.1788C207.166 9.6311 207.339 9.19087 207.684 8.85708C208.028 8.52392 208.462 8.3572 208.985 8.3572C209.532 8.3572 209.972 8.52392 210.305 8.85708C210.638 9.19087 210.804 9.6311 210.804 10.1788V26.1072C210.804 26.6308 210.638 27.0655 210.305 27.4109C209.973 27.7558 209.532 27.9288 208.985 27.9288ZM240.653 28.0359C238.68 28.0359 236.928 27.6131 235.393 26.768C233.861 25.9227 232.659 24.7558 231.792 23.2682C230.924 21.78 230.491 20.0715 230.491 18.1432C230.491 16.1905 230.9 14.4704 231.72 12.9826C232.54 11.4945 233.677 10.3277 235.126 9.48249C236.577 8.63728 238.24 8.21453 240.118 8.21453C241.974 8.21453 243.567 8.62542 244.897 9.44658C246.23 10.2684 247.245 11.3993 247.946 12.8396C248.65 14.2803 249 15.9407 249 17.8216C249 18.2737 248.845 18.6487 248.535 18.9465C248.227 19.2438 247.834 19.3927 247.36 19.3927H232.987V16.5358H247.252L245.789 17.5359C245.767 16.345 245.529 15.2797 245.077 14.3392C244.625 13.3985 243.983 12.6544 243.152 12.1071C242.318 11.5594 241.309 11.2859 240.118 11.2859C238.764 11.2859 237.604 11.5832 236.643 12.1789C235.679 12.774 234.948 13.5896 234.45 14.6249C233.949 15.6609 233.699 16.833 233.699 18.1429C233.699 19.452 233.998 20.6188 234.591 21.6426C235.187 22.6665 236.007 23.4765 237.051 24.0714C238.099 24.6665 239.298 24.9642 240.653 24.9642C241.39 24.9642 242.145 24.8274 242.918 24.5536C243.691 24.2797 244.315 23.9645 244.792 23.607C245.147 23.3449 245.533 23.2081 245.951 23.1959C246.367 23.1842 246.728 23.3091 247.039 23.571C247.443 23.9281 247.656 24.3209 247.681 24.7495C247.704 25.1784 247.513 25.5474 247.108 25.8568C246.302 26.4996 245.297 27.0236 244.095 27.4279C242.895 27.833 241.747 28.0352 240.653 28.0352V28.0359Z" fill="#F09D51"/>
</svg>
